{
  "accessors": [
    {
      "bufferView": 2,
      "componentType": 5126,
      "count": 49303,
      "max": [1.0000001192092896, 1.0000001192092896, 0.4631696343421936],
      "min": [-1.0000001192092896, -1.0000001192092896, 0.0],
      "type": "VEC3"
    },
    {
      "bufferView": 2,
      "byteOffset": 591636,
      "componentType": 5126,
      "count": 49303,
      "max": [0.9449149370193481, 0.9284884333610535, 0.9999995827674866],
      "min": [-0.9209740161895752, -0.9778406023979187, 0.1812371015548706],
      "type": "VEC3"
    },
    {
      "bufferView": 3,
      "componentType": 5126,
      "count": 49303,
      "max": [1.0, 0.6238006353378296, 0.9350723624229431, 1.0],
      "min": [0.2387019544839859, -0.724840521812439, -0.9710816740989685, 1.0],
      "type": "VEC4"
    },
    {
      "bufferView": 1,
      "componentType": 5126,
      "count": 49303,
      "max": [1.0000001192092896, 1.0000001192092896],
      "min": [0.0, 0.0],
      "type": "VEC2"
    },
    {
      "bufferView": 0,
      "componentType": 5125,
      "count": 240000,
      "type": "SCALAR"
    }
  ],
  "asset": {
    "extras": {
      "author": "JayT3D (https://sketchfab.com/beardyjosh)",
      "license": "CC-BY-4.0 (http://creativecommons.org/licenses/by/4.0/)",
      "source": "https://sketchfab.com/3d-models/volcano-v1-cf92d35ac0c34b71a44870959ed3abc3",
      "title": "Volcano V1"
    },
    "generator": "Sketchfab-16.8.0",
    "version": "2.0"
  },
  "bufferViews": [
    {
      "buffer": 0,
      "byteLength": 960000,
      "byteOffset": 0,
      "name": "floatBufferViews",
      "target": 34963
    },
    {
      "buffer": 0,
      "byteLength": 394424,
      "byteOffset": 960000,
      "byteStride": 8,
      "name": "floatBufferViews",
      "target": 34962
    },
    {
      "buffer": 0,
      "byteLength": 1183272,
      "byteOffset": 1354424,
      "byteStride": 12,
      "name": "floatBufferViews",
      "target": 34962
    },
    {
      "buffer": 0,
      "byteLength": 788848,
      "byteOffset": 2537696,
      "byteStride": 16,
      "name": "floatBufferViews",
      "target": 34962
    }
  ],
  "buffers": [
    {
      "byteLength": 3326544,
      "uri": "scene.bin"
    }
  ],
  "extensionsUsed": ["KHR_materials_specular"],
  "images": [
    {"uri": "textures/Volcano_001_baseColor.jpeg"},
    {"uri": "textures/Volcano_001_metallicRoughness.png"},
    {"uri": "textures/Volcano_001_emissive.jpeg"},
    {"uri": "textures/Volcano_001_normal.jpeg"}
  ],
  "materials": [
    {
      "doubleSided": true,
      "emissiveFactor": [1.0, 1.0, 1.0],
      "emissiveTexture": {"index": 2},
      "extensions": {
        "KHR_materials_specular": {
          "specularColorFactor": [1.0, 1.0, 1.0],
          "specularFactor": 0.3
        }
      },
      "name": "Volcano_001",
      "normalTexture": {"index": 3},
      "occlusionTexture": {"index": 1},
      "pbrMetallicRoughness": {
        "baseColorTexture": {"index": 0},
        "metallicFactor": 0.0,
        "metallicRoughnessTexture": {"index": 1}
      }
    }
  ],
  "meshes": [
    {
      "name": "Volcano_001_Volcano_001_0",
      "primitives": [
        {
          "attributes": {
            "NORMAL": 1,
            "POSITION": 0,
            "TANGENT": 2,
            "TEXCOORD_0": 3
          },
          "indices": 4,
          "material": 0,
          "mode": 4
        }
      ]
    }
  ],
  "nodes": [
    {
      "children": [1],
      "matrix": [
        1.0, 0.0, 0.0, 0.0,
        0.0, 2.220446049250313e-16, -1.0, 0.0,
        0.0, 1.0, 2.220446049250313e-16, 0.0,
        -1.2, 0.0, 0.0, 1.0
      ],
      "name": "Sketchfab_model"
    },
    {
      "children": [2],
      "matrix": [
        15.0, 0.0, 0.0, 0.0,
        0.0, 15.0, 0.0, 0.0,
        0.0, 0.0, 15.0, 0.0,
        0.0, 0.0, 0.0, 1.0
      ],
      "name": "Volcano_001"
    },
    {
      "mesh": 0,
      "name": "Volcano_001_Volcano_001_0"
    }
  ],
  "samplers": [
    {
      "magFilter": 9729,
      "minFilter": 9987,
      "wrapS": 10497,
      "wrapT": 10497
    }
  ],
  "scene": 0,
  "scenes": [
    {
      "name": "Sketchfab_Scene",
      "nodes": [0]
    }
  ],
  "textures": [
    {"sampler": 0, "source": 0},
    {"sampler": 0, "source": 1},
    {"sampler": 0, "source": 2},
    {"sampler": 0, "source": 3}
  ]
}