{
  "accessors": [
    {
      "bufferView": 2,
      "componentType": 5126,
      "count": 1188,
      "max": [1.1002860069274902, 0.7957460284233093, 0.5564280152320862],
      "min": [-0.9044809937477112, -0.810276985168457, -0.30726900696754456],
      "type": "VEC3"
    },
    {
      "bufferView": 2,
      "byteOffset": 14256,
      "componentType": 5126,
      "count": 1188,
      "max": [0.988514244556427, 0.9972218871116638, 1.0],
      "min": [-0.9901043772697449, -0.9803118109703064, -0.37068837881088257],
      "type": "VEC3"
    },
    {
      "bufferView": 1,
      "componentType": 5126,
      "count": 1188,
      "max": [0.984499990940094, 0.984000027179718],
      "min": [0.01860000006854534, 0.01810000091791153],
      "type": "VEC2"
    },
    {
      "bufferView": 0,
      "componentType": 5125,
      "count": 1542,
      "type": "SCALAR"
    }
  ],
  "asset": {
    "extras": {
      "author": "jaimerog (https://sketchfab.com/jaimerog)",
      "license": "CC-BY-4.0 (http://creativecommons.org/licenses/by/4.0/)",
      "source": "https://sketchfab.com/3d-models/volcan-19e2128f4620457197ef02c94d077c0d",
      "title": "Volcán"
    },
    "generator": "Sketchfab-12.67.0",
    "version": "2.0"
  },
  "bufferViews": [
    {
      "buffer": 0,
      "byteLength": 6168,
      "byteOffset": 0,
      "name": "floatBufferViews",
      "target": 34963
    },
    {
      "buffer": 0,
      "byteLength": 9504,
      "byteOffset": 6168,
      "byteStride": 8,
      "name": "floatBufferViews",
      "target": 34962
    },
    {
      "buffer": 0,
      "byteLength": 28512,
      "byteOffset": 15672,
      "byteStride": 12,
      "name": "floatBufferViews",
      "target": 34962
    }
  ],
  "buffers": [
    {
      "byteLength": 44184,
      "uri": "scene.bin"
    }
  ],
  "images": [
    {
      "uri": "textures/None_baseColor.png"
    }
  ],
  "materials": [
    {
      "doubleSided": true,
      "name": "None",
      "pbrMetallicRoughness": {
        "baseColorTexture": {
          "index": 0
        },
        "metallicFactor": 0.0
      }
    }
  ],
  "meshes": [
    {
      "name": "Object_0",
      "primitives": [
        {
          "attributes": {
            "NORMAL": 1,
            "POSITION": 0,
            "TEXCOORD_0": 2
          },
          "indices": 3,
          "material": 0,
          "mode": 4
        }
      ]
    }
  ],
  "nodes": [
    {
      "children": [1],
      "matrix": [
        1.0, 0.0, 0.0, 0.0,
        0.0, 2.220446049250313e-16, -1.0, 0.0,
        0.0, 1.0, 2.220446049250313e-16, 0.0,
        0.0, 0.0, 0.0, 1.0
      ],
      "name": "Sketchfab_model"
    },
    {
      "children": [2],
      "matrix": [
        15.0, 0.0, 0.0, 0.0,
        0.0, 15.0, 0.0, 0.0,
        0.0, 0.0, 15.0, 0.0,
        0.0, 0.0, 0.0, 1.0
      ],
      "name": "PUSHILIN_volcano.obj.cleaner.materialmerger.gles"
    },
    {
      "mesh": 0,
      "name": "Object_2"
    }
  ],
  "samplers": [
    {
      "magFilter": 9729,
      "minFilter": 9987,
      "wrapS": 10497,
      "wrapT": 10497
    }
  ],
  "scene": 0,
  "scenes": [
    {
      "name": "Sketchfab_Scene",
      "nodes": [0]
    }
  ],
  "textures": [
    {
      "sampler": 0,
      "source": 0
    }
  ]
}
